<svg xmlns="http://www.w3.org/2000/svg" width="230" height="230" fill="none" fill-rule="evenodd" xmlns:v="https://vecta.io/nano"><path d="M113.237 59.1c-3.354.492-6.012 2.094-7.838 4.723-1.59 2.292-51.381 91.039-51.86 92.436-1.045 3.047-.535 7.182 1.226 9.959 1.824 2.874 4.917 4.823 8.363 5.268 1.296.168 18.745.228 52.676.181l52.07-.517c3.586-1.204 6.188-3.353 7.624-6.3s1.596-6.236.442-9.189c-.304-.781-38.931-69.602-49.778-88.69-2.075-3.652-3.473-5.314-5.393-6.411-2.146-1.225-5.155-1.809-7.532-1.461zm26.846 56.043l25.127 44.797c0 .084-22.668.153-50.375.153s-50.375-.069-50.375-.153c0-.241 50.24-89.44 50.375-89.44.067 0 11.429 20.089 25.248 44.643z" fill="#f35f6f"/><path d="M140.083 115.143l25.127 44.797c0 .084-22.668.152-50.375.152s-50.375-.068-50.375-.152c0-.241 50.24-89.44 50.375-89.44.067 0 11.429 20.089 25.248 44.643z" fill="#fff"/><path d="M113.187 102.457c-3.403.707-5.898 3.516-6.461 7.275-.118.782.285 4.06 1.44 11.736l1.866 11.5c1.137 3.68 5.75 4.702 8.374 1.856.532-.577 1.086-1.422 1.232-1.877s.989-5.622 1.874-11.483c1.824-12.075 1.84-12.561.509-14.996-1.651-3.019-5.406-4.724-8.834-4.011zm-.491 39.009c-1.602.814-2.341 2.107-2.341 4.095 0 1.841.541 2.884 2.019 3.897 1.221.837 3.702.837 4.923 0 2.764-1.894 2.843-5.932.151-7.713-1.347-.892-3.318-1.007-4.752-.279z" fill="#2d3e4d"/></svg>